<svg width="44" height="44" viewBox="0 0 44 44" fill="none" xmlns="http://www.w3.org/2000/svg">
<rect width="44" height="44" rx="22" fill="#F2F4F7"/>
<g clip-path="url(#clip0_312_1637)">
<path fill-rule="evenodd" clip-rule="evenodd" d="M14.9999 19C14.9999 17.1435 15.7374 15.363 17.0502 14.0503C18.3629 12.7375 20.1434 12 21.9999 12C23.8564 12 25.6369 12.7375 26.9497 14.0503C28.2624 15.363 28.9999 17.1435 28.9999 19V22.764L30.8219 26.408C30.9058 26.5757 30.9454 26.7621 30.937 26.9494C30.9286 27.1368 30.8724 27.3188 30.7738 27.4783C30.6752 27.6379 30.5375 27.7695 30.3737 27.8608C30.2099 27.9521 30.0255 28 29.8379 28H25.8739C25.6515 28.8582 25.1504 29.6183 24.4492 30.1609C23.748 30.7035 22.8865 30.9979 21.9999 30.9979C21.1133 30.9979 20.2518 30.7035 19.5507 30.1609C18.8495 29.6183 18.3484 28.8582 18.1259 28H14.1619C13.9744 28 13.79 27.9521 13.6262 27.8608C13.4624 27.7695 13.3247 27.6379 13.2261 27.4783C13.1275 27.3188 13.0713 27.1368 13.0629 26.9494C13.0545 26.7621 13.0941 26.5757 13.1779 26.408L14.9999 22.764V19ZM20.2679 28C20.4435 28.304 20.6959 28.5565 21 28.732C21.304 28.9075 21.6489 28.9999 21.9999 28.9999C22.351 28.9999 22.6959 28.9075 22.9999 28.732C23.3039 28.5565 23.5564 28.304 23.7319 28H20.2679ZM21.9999 14C20.6738 14 19.4021 14.5268 18.4644 15.4645C17.5267 16.4021 16.9999 17.6739 16.9999 19V22.764C16.9999 23.0743 16.9277 23.3804 16.7889 23.658L15.6189 26H28.3819L27.2119 23.658C27.0729 23.3805 27.0003 23.0744 26.9999 22.764V19C26.9999 17.6739 26.4731 16.4021 25.5355 15.4645C24.5978 14.5268 23.326 14 21.9999 14Z" fill="#09244B"/>
</g>
<defs>
<clipPath id="clip0_312_1637">
<rect width="24" height="24" fill="white" transform="translate(10 10)"/>
</clipPath>
</defs>
</svg>
