<svg width="18" height="19" viewBox="0 0 18 19" fill="none" xmlns="http://www.w3.org/2000/svg">
<g clip-path="url(#clip0_312_1620)">
<path d="M9.96525 3.41226L10.0605 3.50001L12.3105 5.75001H14.25C14.6284 5.74989 14.9929 5.89282 15.2704 6.15014C15.5479 6.40745 15.7179 6.76015 15.7463 7.13751L15.75 7.25001V14.75C15.7499 15.1283 15.6069 15.4926 15.3496 15.77C15.0923 16.0473 14.7397 16.2171 14.3625 16.2455L14.25 16.25H3.75C3.37157 16.2501 3.00708 16.1072 2.72959 15.8499C2.4521 15.5926 2.28213 15.2399 2.25375 14.8625L2.25 14.75V7.25001C2.24988 6.87158 2.3928 6.50709 2.65012 6.2296C2.90744 5.95212 3.26013 5.78215 3.6375 5.75376L3.75 5.75001H5.6895L7.9395 3.50001C8.1895 3.25004 8.51977 3.0964 8.87202 3.06621C9.22427 3.03602 9.57586 3.13122 9.86475 3.33501L9.96525 3.41226ZM14.25 7.25001H3.75V14.75H14.25V7.25001ZM7.5 11.75C7.69891 11.75 7.88968 11.829 8.03033 11.9697C8.17098 12.1103 8.25 12.3011 8.25 12.5C8.25 12.6989 8.17098 12.8897 8.03033 13.0303C7.88968 13.171 7.69891 13.25 7.5 13.25H6C5.80109 13.25 5.61032 13.171 5.46967 13.0303C5.32902 12.8897 5.25 12.6989 5.25 12.5C5.25 12.3011 5.32902 12.1103 5.46967 11.9697C5.61032 11.829 5.80109 11.75 6 11.75H7.5ZM10.5 8.75001C10.6912 8.75023 10.875 8.82342 11.014 8.95465C11.153 9.08588 11.2367 9.26523 11.2479 9.45606C11.2591 9.64689 11.197 9.8348 11.0743 9.98139C10.9516 10.128 10.7776 10.2222 10.5877 10.2448L10.5 10.25H6C5.80884 10.2498 5.62498 10.1766 5.48597 10.0454C5.34697 9.91415 5.26332 9.7348 5.25212 9.54397C5.24092 9.35314 5.30301 9.16523 5.4257 9.01864C5.54839 8.87205 5.72243 8.77784 5.91225 8.75526L6 8.75001H10.5ZM9 4.56051L7.8105 5.75001H10.1895L9 4.56051Z" fill="#09244B"/>
</g>
<defs>
<clipPath id="clip0_312_1620">
<rect width="18" height="18" fill="white" transform="translate(0 0.5)"/>
</clipPath>
</defs>
</svg>
