<svg width="18" height="19" viewBox="0 0 18 19" fill="none" xmlns="http://www.w3.org/2000/svg">
<g clip-path="url(#clip0_312_1608)">
<path d="M14.25 2.75C14.6478 2.75 15.0294 2.90804 15.3107 3.18934C15.592 3.47064 15.75 3.85218 15.75 4.25V14.75C15.75 15.1478 15.592 15.5294 15.3107 15.8107C15.0294 16.092 14.6478 16.25 14.25 16.25H3.75C3.35218 16.25 2.97064 16.092 2.68934 15.8107C2.40804 15.5294 2.25 15.1478 2.25 14.75V4.25C2.25 3.85218 2.40804 3.47064 2.68934 3.18934C2.97064 2.90804 3.35218 2.75 3.75 2.75H14.25ZM14.25 7.25H3.75V14.75H14.25V7.25ZM6.375 11.75C6.57391 11.75 6.76468 11.829 6.90533 11.9697C7.04598 12.1103 7.125 12.3011 7.125 12.5C7.125 12.6989 7.04598 12.8897 6.90533 13.0303C6.76468 13.171 6.57391 13.25 6.375 13.25H5.625C5.42609 13.25 5.23532 13.171 5.09467 13.0303C4.95402 12.8897 4.875 12.6989 4.875 12.5C4.875 12.3011 4.95402 12.1103 5.09467 11.9697C5.23532 11.829 5.42609 11.75 5.625 11.75H6.375ZM9.375 11.75C9.56616 11.7502 9.75002 11.8234 9.88903 11.9546C10.028 12.0859 10.1117 12.2652 10.1229 12.456C10.1341 12.6469 10.072 12.8348 9.9493 12.9814C9.82661 13.128 9.65257 13.2222 9.46275 13.2448L9.375 13.25H8.625C8.43384 13.2498 8.24998 13.1766 8.11097 13.0454C7.97197 12.9141 7.88832 12.7348 7.87712 12.544C7.86592 12.3531 7.92801 12.1652 8.0507 12.0186C8.17339 11.872 8.34743 11.7778 8.53725 11.7552L8.625 11.75H9.375ZM6.375 8.75C6.56616 8.75021 6.75002 8.82341 6.88903 8.95464C7.02803 9.08586 7.11168 9.26521 7.12288 9.45605C7.13408 9.64688 7.07199 9.83478 6.9493 9.98137C6.82661 10.128 6.65257 10.2222 6.46275 10.2448L6.375 10.25H5.625C5.43384 10.2498 5.24998 10.1766 5.11097 10.0454C4.97197 9.91414 4.88832 9.73479 4.87712 9.54395C4.86592 9.35312 4.92801 9.16522 5.0507 9.01863C5.17339 8.87204 5.34743 8.77783 5.53725 8.75525L5.625 8.75H6.375ZM9.375 8.75C9.57391 8.75 9.76468 8.82902 9.90533 8.96967C10.046 9.11032 10.125 9.30109 10.125 9.5C10.125 9.69891 10.046 9.88968 9.90533 10.0303C9.76468 10.171 9.57391 10.25 9.375 10.25H8.625C8.42609 10.25 8.23532 10.171 8.09467 10.0303C7.95402 9.88968 7.875 9.69891 7.875 9.5C7.875 9.30109 7.95402 9.11032 8.09467 8.96967C8.23532 8.82902 8.42609 8.75 8.625 8.75H9.375ZM12.375 8.75C12.5662 8.75021 12.75 8.82341 12.889 8.95464C13.028 9.08586 13.1117 9.26521 13.1229 9.45605C13.1341 9.64688 13.072 9.83478 12.9493 9.98137C12.8266 10.128 12.6526 10.2222 12.4628 10.2448L12.375 10.25H11.625C11.4338 10.2498 11.25 10.1766 11.111 10.0454C10.972 9.91414 10.8883 9.73479 10.8771 9.54395C10.8659 9.35312 10.928 9.16522 11.0507 9.01863C11.1734 8.87204 11.3474 8.77783 11.5373 8.75525L11.625 8.75H12.375ZM14.25 4.25H3.75V5.75H14.25V4.25Z" fill="#09244B"/>
</g>
<defs>
<clipPath id="clip0_312_1608">
<rect width="18" height="18" fill="white" transform="translate(0 0.5)"/>
</clipPath>
</defs>
</svg>
