<svg width="55" height="27" viewBox="0 0 55 27" fill="none" xmlns="http://www.w3.org/2000/svg">
<rect width="55" height="27" rx="13.5" fill="#E3FFF1"/>
<path d="M10.6974 18L8.23438 9.27273H9.93466L11.5071 15.6861H11.5881L13.267 9.27273H14.8139L16.4972 15.6903H16.5739L18.1463 9.27273H19.8466L17.3835 18H15.8239L14.0767 11.8764H14.0085L12.2571 18H10.6974ZM28.7524 13.6364C28.7524 14.5767 28.5762 15.3821 28.224 16.0526C27.8745 16.7202 27.3973 17.2315 26.7921 17.5866C26.1899 17.9418 25.5066 18.1193 24.7424 18.1193C23.9782 18.1193 23.2936 17.9418 22.6885 17.5866C22.0862 17.2287 21.6089 16.7159 21.2566 16.0483C20.9072 15.3778 20.7325 14.5739 20.7325 13.6364C20.7325 12.696 20.9072 11.892 21.2566 11.2244C21.6089 10.554 22.0862 10.0412 22.6885 9.68608C23.2936 9.33097 23.9782 9.15341 24.7424 9.15341C25.5066 9.15341 26.1899 9.33097 26.7921 9.68608C27.3973 10.0412 27.8745 10.554 28.224 11.2244C28.5762 11.892 28.7524 12.696 28.7524 13.6364ZM27.1629 13.6364C27.1629 12.9744 27.0592 12.4162 26.8518 11.9616C26.6473 11.5043 26.3632 11.1591 25.9995 10.9261C25.6359 10.6903 25.2169 10.5724 24.7424 10.5724C24.268 10.5724 23.849 10.6903 23.4853 10.9261C23.1217 11.1591 22.8362 11.5043 22.6288 11.9616C22.4242 12.4162 22.322 12.9744 22.322 13.6364C22.322 14.2983 22.4242 14.858 22.6288 15.3153C22.8362 15.7699 23.1217 16.1151 23.4853 16.3509C23.849 16.5838 24.268 16.7003 24.7424 16.7003C25.2169 16.7003 25.6359 16.5838 25.9995 16.3509C26.3632 16.1151 26.6473 15.7699 26.8518 15.3153C27.0592 14.858 27.1629 14.2983 27.1629 13.6364ZM30.727 18V9.27273H33.9998C34.6702 9.27273 35.2327 9.3892 35.6873 9.62216C36.1447 9.85511 36.4898 10.1818 36.7228 10.6023C36.9586 11.0199 37.0765 11.5071 37.0765 12.0639C37.0765 12.6236 36.9572 13.1094 36.7185 13.5213C36.4827 13.9304 36.1347 14.2472 35.6745 14.4716C35.2143 14.6932 34.6489 14.804 33.9785 14.804H31.6475V13.4915H33.7654C34.1574 13.4915 34.4785 13.4375 34.7285 13.3295C34.9785 13.2187 35.1631 13.0582 35.2824 12.848C35.4046 12.6349 35.4657 12.3736 35.4657 12.0639C35.4657 11.7543 35.4046 11.4901 35.2824 11.2713C35.1603 11.0497 34.9742 10.8821 34.7242 10.7685C34.4742 10.652 34.1518 10.5938 33.7569 10.5938H32.308V18H30.727ZM35.2356 14.0455L37.3961 18H35.6319L33.5097 14.0455H35.2356ZM39.0117 18V9.27273H40.5927V13.2827H40.6992L44.1041 9.27273H46.0345L42.6595 13.1889L46.0643 18H44.1637L41.56 14.2585L40.5927 15.4006V18H39.0117Z" fill="#008241"/>
</svg>
