<svg width="66" height="27" viewBox="0 0 66 27" fill="none" xmlns="http://www.w3.org/2000/svg">
<rect width="66" height="27" rx="13.5" fill="#F2F4FF"/>
<path d="M8.8608 18V9.27273H10.4418V12.9673H14.4858V9.27273H16.071V18H14.4858V14.2926H10.4418V18H8.8608ZM18.2705 18V9.27273H23.9466V10.598H19.8514V12.9673H23.6526V14.2926H19.8514V16.6747H23.9807V18H18.2705ZM27.1603 18H25.4728L28.5452 9.27273H30.4969L33.5736 18H31.8861L29.5552 11.0625H29.487L27.1603 18ZM27.2157 14.5781H31.818V15.848H27.2157V14.5781ZM35.2031 18V9.27273H36.7841V16.6747H40.6279V18H35.2031ZM40.9832 10.598V9.27273H47.9463V10.598H45.2488V18H43.6807V10.598H40.9832ZM49.7686 18V9.27273H51.3496V12.9673H55.3936V9.27273H56.9788V18H55.3936V14.2926H51.3496V18H49.7686Z" fill="#395DFF"/>
</svg>
