<svg width="122" height="27" viewBox="0 0 122 27" fill="none" xmlns="http://www.w3.org/2000/svg">
<rect width="122" height="27" rx="13.5" fill="#FFEBFC"/>
<path d="M8.8608 9.27273H10.7955L13.3864 15.5966H13.4886L16.0795 9.27273H18.0142V18H16.4972V12.0043H16.4162L14.0043 17.9744H12.8707L10.4588 11.9915H10.3778V18H8.8608V9.27273ZM20.2158 18V9.27273H25.8919V10.598H21.7968V12.9673H25.5979V14.2926H21.7968V16.6747H25.926V18H20.2158ZM35.1567 9.27273V18H33.7505L29.6383 12.0554H29.5658V18H27.9849V9.27273H29.3996L33.5076 15.2216H33.5843V9.27273H35.1567ZM36.9759 10.598V9.27273H43.9389V10.598H41.2415V18H39.6733V10.598H36.9759ZM45.8273 18H44.1398L47.2123 9.27273H49.164L52.2407 18H50.5532L48.2222 11.0625H48.154L45.8273 18ZM45.8827 14.5781H50.485V15.848H45.8827V14.5781ZM53.8702 18V9.27273H55.4511V16.6747H59.2949V18H53.8702ZM64.6036 18V9.27273H66.1846V12.9673H70.2286V9.27273H71.8138V18H70.2286V14.2926H66.1846V18H64.6036ZM74.0133 18V9.27273H79.6894V10.598H75.5943V12.9673H79.3954V14.2926H75.5943V16.6747H79.7235V18H74.0133ZM82.9031 18H81.2156L84.288 9.27273H86.2397L89.3164 18H87.6289L85.298 11.0625H85.2298L82.9031 18ZM82.9585 14.5781H87.5608V15.848H82.9585V14.5781ZM90.946 18V9.27273H92.5269V16.6747H96.3707V18H90.946ZM96.726 10.598V9.27273H103.689V10.598H100.992V18H99.4235V10.598H96.726ZM105.511 18V9.27273H107.092V12.9673H111.136V9.27273H112.722V18H111.136V14.2926H107.092V18H105.511Z" fill="#E002BB"/>
</svg>
