<svg width="38" height="38" viewBox="0 0 38 38" fill="none" xmlns="http://www.w3.org/2000/svg">
<g clip-path="url(#clip0_312_1625)">
<path d="M11.0834 4.75V6.33333C11.0834 7.17319 11.417 7.97864 12.0109 8.57251C12.6047 9.16637 13.4102 9.5 14.25 9.5H23.75C24.5899 9.5 25.3953 9.16637 25.9892 8.57251C26.5831 7.97864 26.9167 7.17319 26.9167 6.33333V4.75H28.5C29.3399 4.75 30.1453 5.08363 30.7392 5.6775C31.3331 6.27136 31.6667 7.07682 31.6667 7.91667V25.3333C31.6667 27.8529 30.6658 30.2693 28.8842 32.0509C27.1026 33.8324 24.6863 34.8333 22.1667 34.8333H9.50004C8.66019 34.8333 7.85473 34.4997 7.26087 33.9058C6.667 33.312 6.33337 32.5065 6.33337 31.6667V7.91667C6.33337 7.07682 6.667 6.27136 7.26087 5.6775C7.85473 5.08363 8.66019 4.75 9.50004 4.75H11.0834ZM19 22.1667H14.25C13.8301 22.1667 13.4274 22.3335 13.1305 22.6304C12.8335 22.9273 12.6667 23.3301 12.6667 23.75C12.6667 24.1699 12.8335 24.5727 13.1305 24.8696C13.4274 25.1665 13.8301 25.3333 14.25 25.3333H19C19.42 25.3333 19.8227 25.1665 20.1196 24.8696C20.4166 24.5727 20.5834 24.1699 20.5834 23.75C20.5834 23.3301 20.4166 22.9273 20.1196 22.6304C19.8227 22.3335 19.42 22.1667 19 22.1667ZM23.75 15.8333H14.25C13.8465 15.8338 13.4583 15.9883 13.1649 16.2653C12.8714 16.5424 12.6948 16.921 12.6712 17.3239C12.6475 17.7267 12.7786 18.1234 13.0376 18.4329C13.2966 18.7424 13.6641 18.9413 14.0648 18.9889L14.25 19H23.75C24.17 19 24.5727 18.8332 24.8696 18.5363C25.1666 18.2393 25.3334 17.8366 25.3334 17.4167C25.3334 16.9967 25.1666 16.594 24.8696 16.2971C24.5727 16.0002 24.17 15.8333 23.75 15.8333ZM22.1667 3.16667C22.5703 3.16712 22.9584 3.32164 23.2519 3.59868C23.5453 3.87571 23.7219 4.25434 23.7456 4.65721C23.7692 5.06008 23.6381 5.45677 23.3791 5.76624C23.1201 6.0757 22.7527 6.27459 22.352 6.32225L22.1667 6.33333H15.8334C15.4298 6.33289 15.0417 6.17836 14.7482 5.90132C14.4548 5.62429 14.2782 5.24566 14.2545 4.84279C14.2309 4.43993 14.3619 4.04323 14.621 3.73377C14.88 3.4243 15.2474 3.22542 15.6481 3.17775L15.8334 3.16667H22.1667Z" fill="#06A1FB"/>
</g>
<defs>
<clipPath id="clip0_312_1625">
<rect width="38" height="38" fill="white"/>
</clipPath>
</defs>
</svg>
