<svg width="40" height="40" viewBox="0 0 40 40" fill="none" xmlns="http://www.w3.org/2000/svg">
<path fill-rule="evenodd" clip-rule="evenodd" d="M1.66675 10.2695C1.66672 9.39091 1.6667 8.63293 1.7177 8.00866C1.77154 7.34975 1.8904 6.69438 2.21172 6.06375C2.69109 5.12294 3.45599 4.35804 4.3968 3.87867C5.02743 3.55735 5.6828 3.43849 6.34171 3.38465C6.96599 3.33365 7.72393 3.33367 8.60251 3.3337L15.2445 3.33352C16.2338 3.33221 17.1037 3.33107 17.9037 3.60698C18.6043 3.84864 19.2424 4.24303 19.7719 4.76161C20.3764 5.35369 20.7645 6.13233 21.2057 7.01774L22.6966 10H28.7356C30.0772 9.99999 31.1845 9.99997 32.0865 10.0737C33.0233 10.1502 33.8845 10.3145 34.6934 10.7266C35.9478 11.3658 36.9676 12.3857 37.6068 13.6401C38.0189 14.449 38.1832 15.3101 38.2598 16.247C38.3335 17.149 38.3334 18.2562 38.3334 19.5978V27.0689C38.3334 28.4105 38.3335 29.5177 38.2598 30.4197C38.1832 31.3566 38.0189 32.2177 37.6068 33.0266C36.9676 34.281 35.9478 35.3009 34.6934 35.9401C33.8845 36.3522 33.0233 36.5165 32.0865 36.593C31.1845 36.6667 30.0772 36.6667 28.7356 36.6667H11.2646C9.92301 36.6667 8.8157 36.6667 7.91371 36.593C6.97688 36.5165 6.11571 36.3522 5.30681 35.9401C4.0524 35.3009 3.03253 34.281 2.39337 33.0266C1.98122 32.2177 1.81695 31.3566 1.74041 30.4197C1.66671 29.5177 1.66673 28.4105 1.66675 27.0689V10.2695ZM15.0372 6.66704C16.3546 6.66704 16.6157 6.68878 16.8168 6.75813C17.0503 6.83868 17.263 6.97014 17.4395 7.14301C17.5914 7.29181 17.7277 7.51565 18.3168 8.69392L18.9699 10L5.00021 10C5.00094 9.22503 5.00604 8.69528 5.03996 8.2801C5.07696 7.82732 5.13975 7.65946 5.18174 7.57705C5.34153 7.26345 5.5965 7.00848 5.9101 6.84869C5.99251 6.8067 6.16037 6.74391 6.61315 6.70691C7.08537 6.66833 7.70583 6.66704 8.66675 6.66704H15.0372Z" fill="#FF4D23"/>
</svg>
