<svg width="40" height="40" viewBox="0 0 40 40" fill="none" xmlns="http://www.w3.org/2000/svg">
<path fill-rule="evenodd" clip-rule="evenodd" d="M19.988 6.19497C16.0881 2.78682 10.3207 2.0894 5.84186 5.91621C0.997209 10.0556 0.293326 17.0269 4.12436 21.9567C5.57857 23.828 8.41688 26.6393 11.1446 29.2139C13.9042 31.8186 16.6574 34.28 18.0152 35.4824C18.0237 35.4899 18.0323 35.4976 18.0411 35.5054C18.1688 35.6185 18.3277 35.7594 18.48 35.8741C18.6624 36.0114 18.9243 36.182 19.2739 36.2863C19.7388 36.425 20.2385 36.425 20.7033 36.2863C21.053 36.182 21.3148 36.0114 21.4972 35.8741C21.6496 35.7594 21.8085 35.6185 21.9361 35.5054C21.9449 35.4976 21.9535 35.4899 21.962 35.4824C23.3198 34.28 26.073 31.8186 28.8327 29.2139C31.5603 26.6393 34.3987 23.828 35.8529 21.9567C39.6692 17.0459 39.074 10.0208 34.118 5.9016C29.5893 2.13755 23.8834 2.78553 19.988 6.19497Z" fill="#06A1FB"/>
</svg>
