<svg width="41" height="40" viewBox="0 0 41 40" fill="none" xmlns="http://www.w3.org/2000/svg">
<path fill-rule="evenodd" clip-rule="evenodd" d="M29.5591 3.84329C27.9631 1.99182 25.3515 1.12145 22.7496 2.36313C19.7245 3.80675 18.4016 7.27344 19.6849 10.3186C20.3305 11.8505 22.077 14.6444 23.2287 16.4337C23.2376 16.4476 23.2466 16.4615 23.2555 16.4754C23.4499 16.7776 23.646 17.0824 23.8372 17.3318C24.0538 17.6144 24.3297 17.9164 24.7211 18.1599C25.2741 18.5041 25.9414 18.6829 26.5924 18.6614C27.0531 18.6461 27.4431 18.5225 27.7719 18.3861C28.0622 18.2657 28.3844 18.0998 28.7039 17.9353C28.7186 17.9278 28.7333 17.9202 28.748 17.9126C30.64 16.9388 33.5495 15.3925 34.8745 14.3887C37.4894 12.4076 38.1525 8.72982 36.1852 5.94807C34.5293 3.60657 31.8633 3.03771 29.5591 3.84329Z" fill="#FF02D5"/>
<path d="M29.8482 26.4889C29.8482 27.8077 28.9758 28.9231 27.7734 29.2959L28.5465 29.2601C29.3915 29.2601 30.2131 28.9943 30.8883 28.5008L35.6031 25.061C36.7799 24.2029 38.4269 24.3168 39.4671 25.3286C40.6223 26.4525 40.6223 28.273 39.4671 29.3949L35.4216 33.3301C34.3327 34.3894 32.9432 35.1127 31.4328 35.4069L25.7149 36.5193C24.5811 36.7395 23.4122 36.713 22.2901 36.4396L17.1187 35.1829C16.5 35.031 15.8658 34.9551 15.2277 34.9551C14.5502 34.9551 14.2114 34.9551 13.9396 34.8581C13.4689 34.69 13.0984 34.3196 12.9304 33.8488C12.8333 33.577 12.8333 33.2383 12.8333 32.5608V26.8455C12.8333 26.3692 12.8333 26.131 12.8945 25.9115C12.9487 25.717 13.0378 25.534 13.1573 25.3714C13.2923 25.1879 13.4798 25.0409 13.8547 24.747L15.8307 23.1978C15.8307 23.1978 19.1053 21.6667 20.9143 21.6667C21.6637 21.6667 22.4091 21.7579 23.137 21.9384L27.6098 23.0503C28.9251 23.3763 29.8482 24.5522 29.8482 25.9009V26.4889Z" fill="#FF02D5"/>
<path fill-rule="evenodd" clip-rule="evenodd" d="M6.12256 21.6667C6.13725 21.6667 6.15196 21.6667 6.16667 21.6667C6.1814 21.6667 6.19611 21.6667 6.2108 21.6667C6.56087 21.6666 6.90191 21.6666 7.19205 21.6864C7.50934 21.7081 7.88555 21.7588 8.27562 21.9204C9.09238 22.2587 9.74129 22.9076 10.0796 23.7244C10.2412 24.1145 10.292 24.4907 10.3136 24.808C10.3334 25.0981 10.3334 25.4391 10.3333 25.7892C10.3333 25.8039 10.3333 25.8186 10.3333 25.8333L10.3333 34.2108C10.3334 34.5609 10.3334 34.9019 10.3136 35.1921C10.292 35.5093 10.2412 35.8856 10.0796 36.2756C9.74129 37.0924 9.09238 37.7413 8.27562 38.0796C7.88554 38.2412 7.50934 38.292 7.19205 38.3136C6.90191 38.3334 6.56088 38.3334 6.2108 38.3333H6.12254C5.77247 38.3334 5.43143 38.3334 5.14129 38.3136C4.82401 38.292 4.4478 38.2412 4.05773 38.0796C3.24097 37.7413 2.59205 37.0924 2.25374 36.2756C2.09217 35.8855 2.04138 35.5093 2.01973 35.1921C1.99993 34.9019 1.99997 34.5609 2 34.2108L2.00001 25.8333C2.00001 25.8186 2 25.8039 2 25.7892C1.99997 25.4391 1.99993 25.0981 2.01973 24.808C2.04138 24.4907 2.09217 24.1145 2.25374 23.7244C2.59205 22.9076 3.24097 22.2587 4.05773 21.9204C4.4478 21.7588 4.82401 21.7081 5.1413 21.6864C5.43144 21.6666 5.77248 21.6666 6.12256 21.6667Z" fill="#FF02D5"/>
</svg>
