<svg width="18" height="19" viewBox="0 0 18 19" fill="none" xmlns="http://www.w3.org/2000/svg">
<g clip-path="url(#clip0_312_1602)">
<path fill-rule="evenodd" clip-rule="evenodd" d="M8.00326 2.63226C8.27786 2.38808 8.63254 2.25319 9.00001 2.25319C9.36747 2.25319 9.72215 2.38808 9.99676 2.63226L12.9473 5.25501L13.1348 4.12701C13.1509 4.02984 13.186 3.93682 13.2381 3.85323C13.2903 3.76965 13.3583 3.69714 13.4384 3.63986C13.5186 3.58258 13.6092 3.54164 13.7051 3.51938C13.8011 3.49712 13.9005 3.49398 13.9976 3.51013C14.0948 3.52628 14.1878 3.56142 14.2714 3.61352C14.355 3.66563 14.4275 3.73368 14.4848 3.81381C14.5421 3.89394 14.583 3.98456 14.6053 4.08051C14.6275 4.17645 14.6307 4.27584 14.6145 4.37301L14.2725 6.43251L16.2488 8.18976C16.3899 8.32379 16.4733 8.50743 16.4815 8.70187C16.4898 8.89631 16.4221 9.08633 16.2928 9.23179C16.1635 9.37725 15.9827 9.46675 15.7886 9.48139C15.5946 9.49603 15.4024 9.43467 15.2528 9.31026L14.9048 9.00126L14.3145 14.8993C14.2775 15.2695 14.1042 15.6128 13.8282 15.8624C13.5522 16.112 13.1934 16.2502 12.8213 16.25H5.17876C4.80678 16.25 4.44808 16.1118 4.17228 15.8622C3.89648 15.6126 3.72327 15.2694 3.68626 14.8993L3.09676 9.00126L2.74801 9.31026C2.59835 9.43467 2.40619 9.49603 2.21213 9.48139C2.01807 9.46675 1.83729 9.37725 1.708 9.23179C1.5787 9.08633 1.51101 8.89631 1.51922 8.70187C1.52744 8.50743 1.61091 8.32379 1.75201 8.18976L8.00326 2.63226Z" fill="white"/>
</g>
<defs>
<clipPath id="clip0_312_1602">
<rect width="18" height="18" fill="white" transform="translate(0 0.5)"/>
</clipPath>
</defs>
</svg>
