<svg width="44" height="46" viewBox="0 0 44 46" fill="none" xmlns="http://www.w3.org/2000/svg">
<rect width="44" height="44" rx="22" fill="#06A1FB"/>
<path d="M16.6 29V14.8H22.1C23.7667 14.8 25.0667 15.2 26 16C26.9333 16.8 27.4 17.9067 27.4 19.32C27.4 20.2667 27.1867 21.0867 26.76 21.78C26.3333 22.46 25.7267 22.98 24.94 23.34C24.1533 23.7 23.2067 23.88 22.1 23.88H19.2V29H16.6ZM19.2 21.62H21.98C22.86 21.62 23.5333 21.4267 24 21.04C24.48 20.6533 24.72 20.08 24.72 19.32C24.72 18.5733 24.48 18.0133 24 17.64C23.5333 17.2533 22.86 17.06 21.98 17.06H19.2V21.62Z" fill="white"/>
<g clip-path="url(#clip0_312_1642)">
<rect x="27" y="30" width="16" height="16" rx="8" fill="#FCFCFD"/>
<path fill-rule="evenodd" clip-rule="evenodd" d="M32.6434 36.8621C32.7685 36.7372 32.938 36.6669 33.1148 36.6669C33.2915 36.6669 33.4611 36.7372 33.5861 36.8621L35.0001 38.2761L36.4141 36.8621C36.5391 36.737 36.7087 36.6667 36.8855 36.6667C37.0624 36.6666 37.232 36.7368 37.3571 36.8618C37.4822 36.9868 37.5525 37.1564 37.5526 37.3332C37.5526 37.5101 37.4824 37.6797 37.3574 37.8048L35.4714 39.6908C35.3464 39.8158 35.1769 39.886 35.0001 39.886C34.8233 39.886 34.6538 39.8158 34.5288 39.6908L32.6434 37.8048C32.5185 37.6798 32.4482 37.5102 32.4482 37.3335C32.4482 37.1567 32.5185 36.9872 32.6434 36.8621Z" fill="#09244B"/>
</g>
<rect x="27.5" y="30.5" width="15" height="15" rx="7.5" stroke="#F9FAFB"/>
<defs>
<clipPath id="clip0_312_1642">
<rect x="27" y="30" width="16" height="16" rx="8" fill="white"/>
</clipPath>
</defs>
</svg>
