<svg width="41" height="40" viewBox="0 0 41 40" fill="none" xmlns="http://www.w3.org/2000/svg">
<path fill-rule="evenodd" clip-rule="evenodd" d="M28.731 1.66666H12.6025C11.724 1.66663 10.966 1.66661 10.3417 1.71761C9.6828 1.77144 9.02743 1.8903 8.3968 2.21163C7.45599 2.691 6.69109 3.4559 6.21172 4.39671C5.8904 5.02734 5.77154 5.68271 5.7177 6.34161C5.6667 6.96589 5.66672 7.7238 5.66675 8.60236V31.3976C5.66672 32.2761 5.6667 33.0341 5.7177 33.6584C5.77154 34.3173 5.8904 34.9726 6.21172 35.6033C6.69109 36.5441 7.45599 37.309 8.3968 37.7884C9.02743 38.1097 9.6828 38.2285 10.3417 38.2824C10.966 38.3334 11.7239 38.3334 12.6025 38.3333H28.731C29.6096 38.3334 30.3675 38.3334 30.9918 38.2824C31.6507 38.2285 32.3061 38.1097 32.9367 37.7884C33.8775 37.309 34.6424 36.5441 35.1218 35.6033C35.4431 34.9726 35.562 34.3173 35.6158 33.6584C35.6668 33.0341 35.6668 32.2762 35.6667 31.3976V8.60238C35.6668 7.72382 35.6668 6.96589 35.6158 6.34161C35.562 5.68271 35.4431 5.02734 35.1218 4.39671C34.6424 3.4559 33.8775 2.691 32.9367 2.21163C32.3061 1.8903 31.6507 1.77144 30.9918 1.71761C30.3675 1.66661 29.6095 1.66663 28.731 1.66666ZM20.6667 26.6667C19.286 26.6667 18.1667 27.7859 18.1667 29.1667C18.1667 30.5474 19.286 31.6667 20.6667 31.6667C22.0475 31.6667 23.1667 30.5474 23.1667 29.1667C23.1667 27.7859 22.0475 26.6667 20.6667 26.6667Z" fill="#00DA6D"/>
</svg>
