<svg width="18" height="19" viewBox="0 0 18 19" fill="none" xmlns="http://www.w3.org/2000/svg">
<g clip-path="url(#clip0_312_1614)">
<path fill-rule="evenodd" clip-rule="evenodd" d="M9 10.25C10.797 10.25 12.4312 10.7705 13.6335 11.504C14.2335 11.87 14.7465 12.302 15.117 12.7715C15.4815 13.2327 15.75 13.7847 15.75 14.375C15.75 15.0087 15.4417 15.5083 14.9977 15.8645C14.5778 16.202 14.0235 16.4255 13.4347 16.5815C12.2513 16.8942 10.6718 17 9 17C7.32825 17 5.74875 16.895 4.56525 16.5815C3.9765 16.4255 3.42225 16.202 3.00225 15.8645C2.5575 15.5075 2.25 15.0087 2.25 14.375C2.25 13.7847 2.5185 13.2327 2.883 12.7708C3.2535 12.302 3.76575 11.8707 4.3665 11.5033C5.56875 10.7712 7.20375 10.25 9 10.25ZM9 11.75C7.48275 11.75 6.11775 12.1925 5.148 12.7843C4.66275 13.0798 4.29675 13.4008 4.0605 13.7008C3.8175 14.0083 3.75 14.2408 3.75 14.375C3.75 14.4665 3.77775 14.5633 3.94125 14.6945C4.128 14.8445 4.45275 14.9997 4.94925 15.131C5.93775 15.3935 7.35825 15.5 9 15.5C10.6425 15.5 12.0623 15.3927 13.05 15.131C13.5472 14.9997 13.872 14.8445 14.0588 14.6945C14.2223 14.5633 14.25 14.4665 14.25 14.375C14.25 14.24 14.1825 14.0083 13.9403 13.7008C13.7032 13.4008 13.3372 13.0798 12.852 12.7843C11.8822 12.1917 10.5173 11.75 9 11.75ZM9 2C9.99456 2 10.9484 2.39509 11.6517 3.09835C12.3549 3.80161 12.75 4.75544 12.75 5.75C12.75 6.74456 12.3549 7.69839 11.6517 8.40165C10.9484 9.10491 9.99456 9.5 9 9.5C8.00544 9.5 7.05161 9.10491 6.34835 8.40165C5.64509 7.69839 5.25 6.74456 5.25 5.75C5.25 4.75544 5.64509 3.80161 6.34835 3.09835C7.05161 2.39509 8.00544 2 9 2ZM9 3.5C8.70453 3.5 8.41194 3.5582 8.13896 3.67127C7.86598 3.78434 7.61794 3.95008 7.40901 4.15901C7.20008 4.36794 7.03434 4.61598 6.92127 4.88896C6.8082 5.16194 6.75 5.45453 6.75 5.75C6.75 6.04547 6.8082 6.33806 6.92127 6.61104C7.03434 6.88402 7.20008 7.13206 7.40901 7.34099C7.61794 7.54992 7.86598 7.71566 8.13896 7.82873C8.41194 7.9418 8.70453 8 9 8C9.59674 8 10.169 7.76295 10.591 7.34099C11.0129 6.91903 11.25 6.34674 11.25 5.75C11.25 5.15326 11.0129 4.58097 10.591 4.15901C10.169 3.73705 9.59674 3.5 9 3.5Z" fill="#09244B"/>
</g>
<defs>
<clipPath id="clip0_312_1614">
<rect width="18" height="18" fill="white" transform="translate(0 0.5)"/>
</clipPath>
</defs>
</svg>
